<svg xmlns="http://www.w3.org/2000/svg" xmlns:xlink="http://www.w3.org/1999/xlink" viewBox="0 0 700 346.4" width="700" height="346.4"><path d="M 102.400,92.000 C 102.400,96.400 102.400,96.400 102.400,100.800" stroke-width="5.499" stroke="black" fill="none" stroke-linecap="round"></path><path d="M 102.400,100.800 C 102.400,103.600 102.400,103.600 102.400,106.400" stroke-width="5.379" stroke="black" fill="none" stroke-linecap="round"></path><path d="M 102.400,106.400 C 102.400,110.000 102.400,110.000 102.400,113.600" stroke-width="5.235" stroke="black" fill="none" stroke-linecap="round"></path><path d="M 102.400,113.600 C 102.400,117.200 102.400,117.200 102.400,120.800" stroke-width="5.130" stroke="black" fill="none" stroke-linecap="round"></path><path d="M 102.400,120.800 C 102.400,124.000 102.400,124.000 102.400,127.200" stroke-width="4.297" stroke="black" fill="none" stroke-linecap="round"></path><path d="M 102.400,127.200 C 102.400,130.000 102.400,130.000 102.400,132.800" stroke-width="4.997" stroke="black" fill="none" stroke-linecap="round"></path><path d="M 102.400,132.800 C 102.400,135.600 102.400,135.600 102.400,138.400" stroke-width="5.040" stroke="black" fill="none" stroke-linecap="round"></path><path d="M 102.400,138.400 C 102.400,143.600 102.400,143.600 102.400,148.800" stroke-width="4.919" stroke="black" fill="none" stroke-linecap="round"></path><path d="M 102.400,148.800 C 102.400,151.600 102.400,151.600 102.400,154.400" stroke-width="5.016" stroke="black" fill="none" stroke-linecap="round"></path><path d="M 102.400,154.400 C 102.400,157.200 102.400,157.200 102.400,160.000" stroke-width="5.133" stroke="black" fill="none" stroke-linecap="round"></path><path d="M 102.400,160.000 C 102.400,163.600 102.400,163.600 102.400,167.200" stroke-width="4.779" stroke="black" fill="none" stroke-linecap="round"></path><path d="M 102.400,167.200 C 102.400,170.000 102.400,170.000 102.400,172.800" stroke-width="4.985" stroke="black" fill="none" stroke-linecap="round"></path><path d="M 102.400,172.800 C 102.400,177.200 102.400,177.200 102.400,181.600" stroke-width="4.852" stroke="black" fill="none" stroke-linecap="round"></path><path d="M 102.400,181.600 C 102.400,184.400 102.400,184.400 102.400,187.200" stroke-width="4.822" stroke="black" fill="none" stroke-linecap="round"></path><path d="M 102.400,187.200 C 102.400,190.400 102.400,190.400 102.400,193.600" stroke-width="5.037" stroke="black" fill="none" stroke-linecap="round"></path><path d="M 133.600,94.400 C 131.745,97.086 132.000,97.200 130.400,100.000" stroke-width="5.488" stroke="black" fill="none" stroke-linecap="round"></path><path d="M 130.400,100.000 C 129.771,102.471 129.345,102.286 128.800,104.800" stroke-width="5.423" stroke="black" fill="none" stroke-linecap="round"></path><path d="M 128.800,104.800 C 127.749,107.287 127.771,107.271 126.400,109.600" stroke-width="5.178" stroke="black" fill="none" stroke-linecap="round"></path><path d="M 126.400,109.600 C 124.711,111.945 124.949,112.087 123.200,114.400" stroke-width="5.083" stroke="black" fill="none" stroke-linecap="round"></path><path d="M 123.200,114.400 C 121.918,117.443 121.511,117.145 120.000,120.000" stroke-width="5.117" stroke="black" fill="none" stroke-linecap="round"></path><path d="M 120.000,120.000 C 117.642,121.742 118.318,122.243 116.000,124.000" stroke-width="4.907" stroke="black" fill="none" stroke-linecap="round"></path><path d="M 116.000,124.000 C 115.033,126.549 114.442,126.142 113.600,128.800" stroke-width="5.200" stroke="black" fill="none" stroke-linecap="round"></path><path d="M 113.600,128.800 C 111.905,130.731 112.233,130.949 110.400,132.800" stroke-width="5.138" stroke="black" fill="none" stroke-linecap="round"></path><path d="M 110.400,132.800 C 108.956,135.318 108.705,135.131 107.200,137.600" stroke-width="5.167" stroke="black" fill="none" stroke-linecap="round"></path><path d="M 107.200,137.600 C 105.168,140.828 104.956,140.518 102.400,143.200" stroke-width="5.035" stroke="black" fill="none" stroke-linecap="round"></path><path d="M 102.400,143.200 C 99.098,145.056 99.568,145.628 96.000,147.200" stroke-width="4.706" stroke="black" fill="none" stroke-linecap="round"></path><path d="M 96.000,147.200 C 92.365,148.390 93.898,148.656 92.000,150.400" stroke-width="4.977" stroke="black" fill="none" stroke-linecap="round"></path><path d="M 92.000,150.400 C 92.207,154.313 91.565,152.790 94.400,156.000" stroke-width="5.363" stroke="black" fill="none" stroke-linecap="round"></path><path d="M 94.400,156.000 C 98.468,157.012 97.407,158.313 102.400,158.400" stroke-width="4.140" stroke="black" fill="none" stroke-linecap="round"></path><path d="M 102.400,158.400 C 105.433,159.220 105.268,159.412 108.000,160.800" stroke-width="4.806" stroke="black" fill="none" stroke-linecap="round"></path><path d="M 108.000,160.800 C 110.382,162.822 110.633,162.420 112.800,164.800" stroke-width="4.916" stroke="black" fill="none" stroke-linecap="round"></path><path d="M 112.800,164.800 C 114.651,166.633 114.782,166.422 116.800,168.000" stroke-width="4.883" stroke="black" fill="none" stroke-linecap="round"></path><path d="M 116.800,168.000 C 119.382,168.921 119.051,169.433 121.600,170.400" stroke-width="5.215" stroke="black" fill="none" stroke-linecap="round"></path><path d="M 121.600,170.400 C 123.925,172.497 124.182,172.121 126.400,174.400" stroke-width="5.235" stroke="black" fill="none" stroke-linecap="round"></path><path d="M 126.400,174.400 C 129.058,176.635 129.125,176.497 132.000,178.400" stroke-width="5.028" stroke="black" fill="none" stroke-linecap="round"></path><path d="M 132.000,178.400 C 135.049,180.483 135.058,180.235 138.400,181.600" stroke-width="4.953" stroke="black" fill="none" stroke-linecap="round"></path><path d="M 138.400,181.600 C 141.944,183.521 141.049,182.483 144.000,182.400" stroke-width="5.320" stroke="black" fill="none" stroke-linecap="round"></path><path d="M 144.000,182.400 C 146.397,179.812 146.344,181.121 147.200,176.800" stroke-width="5.236" stroke="black" fill="none" stroke-linecap="round"></path><path d="M 92.000,188.000 C 91.392,183.209 91.600,183.200 91.200,178.400" stroke-width="5.337" stroke="black" fill="none" stroke-linecap="round"></path><path d="M 91.200,178.400 C 91.200,173.200 90.992,173.209 91.200,168.000" stroke-width="4.572" stroke="black" fill="none" stroke-linecap="round"></path><path d="M 91.200,168.000 C 91.001,164.389 91.200,164.400 91.200,160.800" stroke-width="4.916" stroke="black" fill="none" stroke-linecap="round"></path><path d="M 91.200,160.800 C 91.774,157.210 91.401,157.189 92.000,153.600" stroke-width="4.914" stroke="black" fill="none" stroke-linecap="round"></path><path d="M 92.000,153.600 C 91.708,150.776 92.174,150.810 92.000,148.000" stroke-width="4.868" stroke="black" fill="none" stroke-linecap="round"></path><path d="M 92.000,148.000 C 92.547,143.137 92.508,143.176 93.600,138.400" stroke-width="3.886" stroke="black" fill="none" stroke-linecap="round"></path><path d="M 93.600,138.400 C 94.549,136.041 94.147,135.937 95.200,133.600" stroke-width="4.668" stroke="black" fill="none" stroke-linecap="round"></path><path d="M 95.200,133.600 C 95.762,129.929 96.149,130.041 96.800,126.400" stroke-width="4.992" stroke="black" fill="none" stroke-linecap="round"></path><path d="M 96.800,126.400 C 98.120,123.240 97.762,123.129 99.200,120.000" stroke-width="4.970" stroke="black" fill="none" stroke-linecap="round"></path><path d="M 99.200,120.000 C 99.944,117.183 100.120,117.240 100.800,114.400" stroke-width="5.107" stroke="black" fill="none" stroke-linecap="round"></path><path d="M 100.800,114.400 C 101.429,111.929 101.544,111.983 102.400,109.600" stroke-width="5.101" stroke="black" fill="none" stroke-linecap="round"></path><path d="M 102.400,109.600 C 103.528,107.162 103.429,107.129 104.800,104.800" stroke-width="5.100" stroke="black" fill="none" stroke-linecap="round"></path><path d="M 104.800,104.800 C 105.688,100.251 106.328,101.962 108.000,99.200" stroke-width="4.799" stroke="black" fill="none" stroke-linecap="round"></path><path d="M 108.000,99.200 C 112.147,98.620 110.088,98.251 113.600,100.800" stroke-width="5.247" stroke="black" fill="none" stroke-linecap="round"></path><path d="M 113.600,100.800 C 116.042,107.107 116.947,105.820 117.600,113.600" stroke-width="4.307" stroke="black" fill="none" stroke-linecap="round"></path><path d="M 117.600,113.600 C 118.000,117.200 118.442,117.107 118.400,120.800" stroke-width="4.818" stroke="black" fill="none" stroke-linecap="round"></path><path d="M 118.400,120.800 C 118.777,124.403 118.800,124.400 119.200,128.000" stroke-width="4.672" stroke="black" fill="none" stroke-linecap="round"></path><path d="M 119.200,128.000 C 119.574,131.204 119.577,131.203 120.000,134.400" stroke-width="4.885" stroke="black" fill="none" stroke-linecap="round"></path><path d="M 120.000,134.400 C 120.400,137.200 120.374,137.204 120.800,140.000" stroke-width="5.002" stroke="black" fill="none" stroke-linecap="round"></path><path d="M 120.800,140.000 C 121.226,142.796 121.200,142.800 121.600,145.600" stroke-width="5.038" stroke="black" fill="none" stroke-linecap="round"></path><path d="M 121.600,145.600 C 122.211,148.787 122.026,148.796 122.400,152.000" stroke-width="4.817" stroke="black" fill="none" stroke-linecap="round"></path><path d="M 122.400,152.000 C 122.400,155.600 122.611,155.587 122.400,159.200" stroke-width="4.887" stroke="black" fill="none" stroke-linecap="round"></path><path d="M 122.400,159.200 C 121.958,162.862 122.400,162.800 122.400,166.400" stroke-width="4.899" stroke="black" fill="none" stroke-linecap="round"></path><path d="M 122.400,166.400 C 122.868,173.235 122.758,169.262 124.000,172.000" stroke-width="5.089" stroke="black" fill="none" stroke-linecap="round"></path><path d="M 124.000,172.000 C 127.892,164.518 127.268,168.435 131.200,156.800" stroke-width="5.139" stroke="black" fill="none" stroke-linecap="round"></path><path d="M 131.200,156.800 C 132.468,153.221 132.692,153.318 133.600,149.600" stroke-width="4.748" stroke="black" fill="none" stroke-linecap="round"></path><path d="M 133.600,149.600 C 134.344,146.783 134.468,146.821 135.200,144.000" stroke-width="4.343" stroke="black" fill="none" stroke-linecap="round"></path><path d="M 135.200,144.000 C 136.307,141.667 135.944,141.583 136.800,139.200" stroke-width="4.839" stroke="black" fill="none" stroke-linecap="round"></path><path d="M 136.800,139.200 C 137.151,135.594 137.507,135.667 137.600,132.000" stroke-width="5.062" stroke="black" fill="none" stroke-linecap="round"></path><path d="M 137.600,132.000 C 137.630,129.096 137.951,129.194 138.400,126.400" stroke-width="4.892" stroke="black" fill="none" stroke-linecap="round"></path><path d="M 138.400,126.400 C 139.970,123.704 139.230,123.496 140.800,120.800" stroke-width="4.969" stroke="black" fill="none" stroke-linecap="round"></path><path d="M 140.800,120.800 C 140.830,117.896 141.570,118.104 141.600,115.200" stroke-width="5.028" stroke="black" fill="none" stroke-linecap="round"></path><path d="M 141.600,115.200 C 142.977,112.463 142.430,112.296 144.000,109.600" stroke-width="4.845" stroke="black" fill="none" stroke-linecap="round"></path><path d="M 144.000,109.600 C 144.821,103.377 144.977,106.863 145.600,104.000" stroke-width="5.067" stroke="black" fill="none" stroke-linecap="round"></path><path d="M 145.600,104.000 C 147.257,108.339 146.821,104.976 148.000,112.800" stroke-width="5.324" stroke="black" fill="none" stroke-linecap="round"></path><path d="M 148.000,112.800 C 148.000,115.600 148.457,115.539 148.000,118.400" stroke-width="4.953" stroke="black" fill="none" stroke-linecap="round"></path><path d="M 148.000,118.400 C 148.000,121.200 148.000,121.200 148.000,124.000" stroke-width="4.851" stroke="black" fill="none" stroke-linecap="round"></path><path d="M 148.000,124.000 C 147.789,127.613 148.000,127.600 148.000,131.200" stroke-width="4.703" stroke="black" fill="none" stroke-linecap="round"></path><path d="M 148.000,131.200 C 148.586,134.388 148.189,134.413 148.800,137.600" stroke-width="4.887" stroke="black" fill="none" stroke-linecap="round"></path><path d="M 148.800,137.600 C 148.558,140.415 148.986,140.388 148.800,143.200" stroke-width="4.847" stroke="black" fill="none" stroke-linecap="round"></path><path d="M 148.800,143.200 C 149.758,149.584 149.358,149.615 150.400,156.000" stroke-width="4.591" stroke="black" fill="none" stroke-linecap="round"></path><path d="M 150.400,156.000 C 150.945,161.595 150.958,161.584 151.200,167.200" stroke-width="4.308" stroke="black" fill="none" stroke-linecap="round"></path><path d="M 151.200,167.200 C 150.781,170.459 151.345,170.395 151.200,173.600" stroke-width="4.970" stroke="black" fill="none" stroke-linecap="round"></path><path d="M 151.200,173.600 C 152.265,176.348 151.581,176.459 152.800,179.200" stroke-width="4.397" stroke="black" fill="none" stroke-linecap="round"></path><path d="M 152.800,179.200 C 152.252,183.255 153.465,182.748 153.600,186.400" stroke-width="4.746" stroke="black" fill="none" stroke-linecap="round"></path><path d="M 153.600,186.400 C 155.509,190.400 154.652,188.855 157.600,190.400" stroke-width="5.260" stroke="black" fill="none" stroke-linecap="round"></path><path d="M 157.600,190.400 C 160.632,188.831 159.909,190.400 162.400,186.400" stroke-width="5.273" stroke="black" fill="none" stroke-linecap="round"></path><path d="M 162.400,186.400 C 163.200,184.000 163.832,184.431 164.000,181.600" stroke-width="5.156" stroke="black" fill="none" stroke-linecap="round"></path><path d="M 164.000,181.600 C 164.298,178.916 164.800,179.200 165.600,176.800" stroke-width="5.129" stroke="black" fill="none" stroke-linecap="round"></path><path d="M 165.600,176.800 C 168.316,174.210 167.498,173.716 170.400,171.200" stroke-width="4.745" stroke="black" fill="none" stroke-linecap="round"></path><path d="M 170.400,171.200 C 171.600,168.800 171.916,169.010 172.800,166.400" stroke-width="4.974" stroke="black" fill="none" stroke-linecap="round"></path><path d="M 172.800,166.400 C 174.241,164.094 174.000,164.000 175.200,161.600" stroke-width="5.048" stroke="black" fill="none" stroke-linecap="round"></path><path d="M 175.200,161.600 C 176.392,158.855 176.241,158.894 176.800,156.000" stroke-width="5.034" stroke="black" fill="none" stroke-linecap="round"></path><path d="M 176.800,156.000 C 178.061,152.291 177.192,153.255 176.800,150.400" stroke-width="5.155" stroke="black" fill="none" stroke-linecap="round"></path><path d="M 176.800,150.400 C 174.184,148.117 175.661,148.691 172.000,148.800" stroke-width="5.416" stroke="black" fill="none" stroke-linecap="round"></path><path d="M 172.000,148.800 C 167.518,151.102 167.784,150.117 164.000,154.400" stroke-width="4.615" stroke="black" fill="none" stroke-linecap="round"></path><path d="M 164.000,154.400 C 160.612,157.271 161.118,157.102 159.200,160.800" stroke-width="5.090" stroke="black" fill="none" stroke-linecap="round"></path><path d="M 159.200,160.800 C 159.200,163.600 158.212,163.271 159.200,166.400" stroke-width="5.156" stroke="black" fill="none" stroke-linecap="round"></path><path d="M 159.200,166.400 C 158.587,169.345 159.200,169.200 159.200,172.000" stroke-width="5.176" stroke="black" fill="none" stroke-linecap="round"></path><path d="M 159.200,172.000 C 159.747,175.153 159.787,174.545 161.600,176.800" stroke-width="5.270" stroke="black" fill="none" stroke-linecap="round"></path><path d="M 161.600,176.800 C 165.011,179.442 163.347,178.353 166.400,178.400" stroke-width="5.396" stroke="black" fill="none" stroke-linecap="round"></path><path d="M 166.400,178.400 C 167.354,175.230 168.211,177.042 168.000,172.000" stroke-width="5.331" stroke="black" fill="none" stroke-linecap="round"></path><path d="M 168.000,172.000 C 168.644,169.217 168.554,169.230 168.800,166.400" stroke-width="5.285" stroke="black" fill="none" stroke-linecap="round"></path><path d="M 168.800,166.400 C 167.494,161.517 169.043,162.017 168.800,157.600" stroke-width="5.148" stroke="black" fill="none" stroke-linecap="round"></path><path d="M 168.800,157.600 C 171.912,151.437 169.894,154.317 173.600,152.000" stroke-width="4.768" stroke="black" fill="none" stroke-linecap="round"></path><path d="M 173.600,152.000 C 175.282,155.929 175.512,152.637 176.000,160.000" stroke-width="5.216" stroke="black" fill="none" stroke-linecap="round"></path><path d="M 176.000,160.000 C 176.000,162.800 176.482,162.729 176.000,165.600" stroke-width="4.939" stroke="black" fill="none" stroke-linecap="round"></path><path d="M 176.000,165.600 C 176.000,170.000 176.000,170.000 176.000,174.400" stroke-width="4.558" stroke="black" fill="none" stroke-linecap="round"></path><path d="M 176.000,174.400 C 174.578,180.444 176.000,177.600 176.000,180.800" stroke-width="4.842" stroke="black" fill="none" stroke-linecap="round"></path><path d="M 176.000,180.800 C 179.815,178.954 177.778,181.244 182.400,176.000" stroke-width="5.269" stroke="black" fill="none" stroke-linecap="round"></path><path d="M 182.400,176.000 C 185.125,172.150 185.415,172.554 187.200,168.000" stroke-width="4.618" stroke="black" fill="none" stroke-linecap="round"></path><path d="M 187.200,168.000 C 188.056,165.617 188.325,165.750 188.800,163.200" stroke-width="4.371" stroke="black" fill="none" stroke-linecap="round"></path><path d="M 188.800,163.200 C 189.600,160.400 189.656,160.417 190.400,157.600" stroke-width="4.243" stroke="black" fill="none" stroke-linecap="round"></path><path d="M 190.400,157.600 C 191.496,154.857 191.200,154.800 192.000,152.000" stroke-width="4.606" stroke="black" fill="none" stroke-linecap="round"></path><path d="M 192.000,152.000 C 192.419,148.002 192.696,148.057 192.800,144.000" stroke-width="4.566" stroke="black" fill="none" stroke-linecap="round"></path><path d="M 192.800,144.000 C 193.368,139.608 193.219,139.602 193.600,135.200" stroke-width="4.495" stroke="black" fill="none" stroke-linecap="round"></path><path d="M 193.600,135.200 C 193.600,132.000 193.768,132.008 193.600,128.800" stroke-width="4.644" stroke="black" fill="none" stroke-linecap="round"></path><path d="M 193.600,128.800 C 193.357,124.383 193.600,124.400 193.600,120.000" stroke-width="4.520" stroke="black" fill="none" stroke-linecap="round"></path><path d="M 193.600,120.000 C 194.234,117.217 193.757,117.183 194.400,114.400" stroke-width="4.306" stroke="black" fill="none" stroke-linecap="round"></path><path d="M 194.400,114.400 C 194.400,110.400 194.634,110.417 194.400,106.400" stroke-width="4.440" stroke="black" fill="none" stroke-linecap="round"></path><path d="M 194.400,106.400 C 194.400,103.600 194.400,103.600 194.400,100.800" stroke-width="4.706" stroke="black" fill="none" stroke-linecap="round"></path><path d="M 194.400,100.800 C 194.703,93.644 194.400,97.600 194.400,94.400" stroke-width="4.891" stroke="black" fill="none" stroke-linecap="round"></path><path d="M 194.400,94.400 C 193.544,99.592 193.903,95.644 192.800,104.800" stroke-width="5.126" stroke="black" fill="none" stroke-linecap="round"></path><path d="M 192.800,104.800 C 192.400,108.000 192.344,107.992 192.000,111.200" stroke-width="4.344" stroke="black" fill="none" stroke-linecap="round"></path><path d="M 192.000,111.200 C 191.389,114.387 191.600,114.400 191.200,117.600" stroke-width="4.104" stroke="black" fill="none" stroke-linecap="round"></path><path d="M 191.200,117.600 C 191.200,121.200 190.989,121.187 191.200,124.800" stroke-width="4.434" stroke="black" fill="none" stroke-linecap="round"></path><path d="M 191.200,124.800 C 191.200,127.600 191.200,127.600 191.200,130.400" stroke-width="4.690" stroke="black" fill="none" stroke-linecap="round"></path><path d="M 191.200,130.400 C 191.200,133.200 191.200,133.200 191.200,136.000" stroke-width="4.742" stroke="black" fill="none" stroke-linecap="round"></path><path d="M 191.200,136.000 C 191.200,138.800 191.200,138.800 191.200,141.600" stroke-width="4.372" stroke="black" fill="none" stroke-linecap="round"></path><path d="M 191.200,141.600 C 190.976,145.216 191.200,145.200 191.200,148.800" stroke-width="4.558" stroke="black" fill="none" stroke-linecap="round"></path><path d="M 191.200,148.800 C 191.600,151.600 191.376,151.616 192.000,154.400" stroke-width="4.726" stroke="black" fill="none" stroke-linecap="round"></path><path d="M 192.000,154.400 C 192.209,157.241 192.400,157.200 192.800,160.000" stroke-width="4.360" stroke="black" fill="none" stroke-linecap="round"></path><path d="M 192.800,160.000 C 193.544,162.817 193.409,162.841 194.400,165.600" stroke-width="4.661" stroke="black" fill="none" stroke-linecap="round"></path><path d="M 194.400,165.600 C 194.807,168.214 195.144,168.017 196.000,170.400" stroke-width="4.959" stroke="black" fill="none" stroke-linecap="round"></path><path d="M 196.000,170.400 C 197.188,172.991 197.207,172.614 199.200,174.400" stroke-width="5.143" stroke="black" fill="none" stroke-linecap="round"></path><path d="M 199.200,174.400 C 201.641,176.181 201.188,175.791 204.000,176.000" stroke-width="5.370" stroke="black" fill="none" stroke-linecap="round"></path><path d="M 204.000,176.000 C 207.577,175.624 206.841,175.781 209.600,173.600" stroke-width="4.936" stroke="black" fill="none" stroke-linecap="round"></path><path d="M 209.600,173.600 C 211.277,170.436 211.976,171.224 212.800,167.200" stroke-width="5.103" stroke="black" fill="none" stroke-linecap="round"></path><path d="M 212.800,167.200 C 214.694,163.701 214.477,163.636 216.000,160.000" stroke-width="4.696" stroke="black" fill="none" stroke-linecap="round"></path><path d="M 216.000,160.000 C 217.167,156.845 217.094,156.901 217.600,153.600" stroke-width="4.884" stroke="black" fill="none" stroke-linecap="round"></path><path d="M 217.600,153.600 C 217.600,150.800 217.967,150.845 217.600,148.000" stroke-width="5.148" stroke="black" fill="none" stroke-linecap="round"></path><path d="M 217.600,148.000 C 217.600,142.213 217.600,145.200 217.600,142.400" stroke-width="5.178" stroke="black" fill="none" stroke-linecap="round"></path><path d="M 217.600,142.400 C 217.388,145.615 217.600,142.613 217.600,148.800" stroke-width="5.409" stroke="black" fill="none" stroke-linecap="round"></path><path d="M 217.600,148.800 C 218.026,151.596 217.788,151.615 218.400,154.400" stroke-width="5.147" stroke="black" fill="none" stroke-linecap="round"></path><path d="M 218.400,154.400 C 218.774,157.604 218.826,157.596 219.200,160.800" stroke-width="5.031" stroke="black" fill="none" stroke-linecap="round"></path><path d="M 219.200,160.800 C 219.010,163.825 219.574,163.604 220.000,166.400" stroke-width="5.135" stroke="black" fill="none" stroke-linecap="round"></path><path d="M 220.000,166.400 C 221.069,170.348 221.010,169.025 223.200,171.200" stroke-width="5.219" stroke="black" fill="none" stroke-linecap="round"></path><path d="M 223.200,171.200 C 226.253,171.153 225.069,171.948 228.000,169.600" stroke-width="5.401" stroke="black" fill="none" stroke-linecap="round"></path><path d="M 228.000,169.600 C 229.621,167.332 229.853,167.953 230.400,164.800" stroke-width="5.009" stroke="black" fill="none" stroke-linecap="round"></path><path d="M 230.400,164.800 C 229.941,161.509 231.221,162.132 231.200,159.200" stroke-width="5.136" stroke="black" fill="none" stroke-linecap="round"></path><path d="M 231.200,159.200 C 233.791,158.012 232.340,157.109 235.200,156.000" stroke-width="4.946" stroke="black" fill="none" stroke-linecap="round"></path><path d="M 235.200,156.000 C 236.000,153.600 236.591,154.012 236.800,151.200" stroke-width="5.197" stroke="black" fill="none" stroke-linecap="round"></path><path d="M 236.800,151.200 C 237.335,145.943 237.600,148.800 238.400,146.400" stroke-width="5.265" stroke="black" fill="none" stroke-linecap="round"></path><path d="M 238.400,146.400 C 241.209,149.790 240.134,147.143 242.400,153.600" stroke-width="5.417" stroke="black" fill="none" stroke-linecap="round"></path><path d="M 242.400,153.600 C 242.108,156.424 243.209,156.190 242.400,159.200" stroke-width="4.529" stroke="black" fill="none" stroke-linecap="round"></path><path d="M 242.400,159.200 C 243.278,163.989 242.908,164.024 244.000,168.800" stroke-width="3.818" stroke="black" fill="none" stroke-linecap="round"></path><path d="M 244.000,168.800 C 244.374,172.004 244.478,171.989 244.800,175.200" stroke-width="4.558" stroke="black" fill="none" stroke-linecap="round"></path><path d="M 244.800,175.200 C 243.740,179.405 245.174,178.004 245.600,180.800" stroke-width="4.887" stroke="black" fill="none" stroke-linecap="round"></path><path d="M 245.600,180.800 C 249.984,182.168 248.540,183.005 254.400,182.400" stroke-width="5.217" stroke="black" fill="none" stroke-linecap="round"></path><path d="M 254.400,182.400 C 258.266,183.078 257.584,182.568 260.800,181.600" stroke-width="4.364" stroke="black" fill="none" stroke-linecap="round"></path><path d="M 260.800,181.600 C 263.113,179.460 263.066,180.278 264.000,176.800" stroke-width="4.962" stroke="black" fill="none" stroke-linecap="round"></path><path d="M 264.000,176.800 C 263.794,173.021 265.113,173.460 264.800,169.600" stroke-width="4.730" stroke="black" fill="none" stroke-linecap="round"></path><path d="M 264.800,169.600 C 266.677,166.508 265.794,166.221 268.000,163.200" stroke-width="4.654" stroke="black" fill="none" stroke-linecap="round"></path><path d="M 268.000,163.200 C 268.991,160.441 269.077,160.508 269.600,157.600" stroke-width="4.930" stroke="black" fill="none" stroke-linecap="round"></path><path d="M 269.600,157.600 C 270.212,154.815 270.191,154.841 270.400,152.000" stroke-width="4.840" stroke="black" fill="none" stroke-linecap="round"></path><path d="M 270.400,152.000 C 271.886,147.511 270.612,148.815 270.400,145.600" stroke-width="5.098" stroke="black" fill="none" stroke-linecap="round"></path><path d="M 270.400,145.600 C 267.533,144.458 269.086,143.911 264.800,144.800" stroke-width="5.311" stroke="black" fill="none" stroke-linecap="round"></path><path d="M 264.800,144.800 C 260.943,145.528 261.133,145.258 257.600,147.200" stroke-width="5.005" stroke="black" fill="none" stroke-linecap="round"></path><path d="M 257.600,147.200 C 255.400,148.600 255.343,148.328 253.600,150.400" stroke-width="5.073" stroke="black" fill="none" stroke-linecap="round"></path><path d="M 253.600,150.400 C 251.228,152.080 251.800,152.200 250.400,154.400" stroke-width="4.476" stroke="black" fill="none" stroke-linecap="round"></path><path d="M 250.400,154.400 C 249.790,157.988 249.228,157.680 249.600,161.600" stroke-width="4.870" stroke="black" fill="none" stroke-linecap="round"></path><path d="M 249.600,161.600 C 249.110,165.680 249.390,165.588 249.600,169.600" stroke-width="4.605" stroke="black" fill="none" stroke-linecap="round"></path><path d="M 249.600,169.600 C 249.307,173.380 249.910,172.080 251.200,174.400" stroke-width="4.792" stroke="black" fill="none" stroke-linecap="round"></path><path d="M 251.200,174.400 C 256.685,176.621 254.507,176.180 260.000,175.200" stroke-width="5.148" stroke="black" fill="none" stroke-linecap="round"></path><path d="M 260.000,175.200 C 261.850,172.533 262.285,174.221 262.400,169.600" stroke-width="5.209" stroke="black" fill="none" stroke-linecap="round"></path><path d="M 262.400,169.600 C 262.400,166.000 263.050,166.133 262.400,162.400" stroke-width="5.001" stroke="black" fill="none" stroke-linecap="round"></path><path d="M 262.400,162.400 C 261.953,159.127 262.400,159.200 262.400,156.000" stroke-width="5.098" stroke="black" fill="none" stroke-linecap="round"></path><path d="M 262.400,156.000 C 263.422,150.477 262.753,153.527 264.000,151.200" stroke-width="5.092" stroke="black" fill="none" stroke-linecap="round"></path><path d="M 264.000,151.200 C 265.046,155.568 265.022,152.477 265.600,160.000" stroke-width="5.245" stroke="black" fill="none" stroke-linecap="round"></path><path d="M 265.600,160.000 C 266.183,165.193 266.246,165.168 266.400,170.400" stroke-width="4.500" stroke="black" fill="none" stroke-linecap="round"></path><path d="M 266.400,170.400 C 266.400,174.800 266.583,174.793 266.400,179.200" stroke-width="3.914" stroke="black" fill="none" stroke-linecap="round"></path><path d="M 266.400,179.200 C 266.780,183.631 266.400,183.600 266.400,188.000" stroke-width="4.268" stroke="black" fill="none" stroke-linecap="round"></path><path d="M 266.400,188.000 C 265.522,192.789 265.980,192.831 264.800,197.600" stroke-width="4.321" stroke="black" fill="none" stroke-linecap="round"></path><path d="M 264.800,197.600 C 264.530,200.821 264.322,200.789 264.000,204.000" stroke-width="4.550" stroke="black" fill="none" stroke-linecap="round"></path><path d="M 264.000,204.000 C 263.539,208.094 263.330,208.021 262.400,212.000" stroke-width="4.541" stroke="black" fill="none" stroke-linecap="round"></path><path d="M 262.400,212.000 C 260.280,217.561 260.739,217.694 258.400,223.200" stroke-width="3.533" stroke="black" fill="none" stroke-linecap="round"></path><path d="M 258.400,223.200 C 258.294,227.950 257.080,227.161 256.000,231.200" stroke-width="4.345" stroke="black" fill="none" stroke-linecap="round"></path><path d="M 256.000,231.200 C 252.765,235.065 253.494,234.750 248.800,236.800" stroke-width="4.752" stroke="black" fill="none" stroke-linecap="round"></path><path d="M 248.800,236.800 C 245.553,237.976 246.365,237.865 243.200,236.800" stroke-width="5.147" stroke="black" fill="none" stroke-linecap="round"></path><path d="M 243.200,236.800 C 238.984,234.072 239.153,234.776 236.000,230.400" stroke-width="4.565" stroke="black" fill="none" stroke-linecap="round"></path><path d="M 236.000,230.400 C 233.917,227.351 233.784,227.672 232.800,224.000" stroke-width="4.123" stroke="black" fill="none" stroke-linecap="round"></path><path d="M 232.800,224.000 C 232.000,221.206 231.917,221.351 232.000,218.400" stroke-width="4.146" stroke="black" fill="none" stroke-linecap="round"></path><path d="M 232.000,218.400 C 230.631,213.370 232.000,214.806 232.800,211.200" stroke-width="4.662" stroke="black" fill="none" stroke-linecap="round"></path><path d="M 232.800,211.200 C 237.600,209.600 235.831,208.170 242.400,208.000" stroke-width="4.406" stroke="black" fill="none" stroke-linecap="round"></path><path d="M 242.400,208.000 C 244.732,206.780 244.800,207.200 247.200,206.400" stroke-width="4.395" stroke="black" fill="none" stroke-linecap="round"></path><path d="M 247.200,206.400 C 250.014,206.599 249.932,205.980 252.800,206.400" stroke-width="4.279" stroke="black" fill="none" stroke-linecap="round"></path><path d="M 252.800,206.400 C 255.881,206.650 255.614,206.199 258.400,205.600" stroke-width="4.618" stroke="black" fill="none" stroke-linecap="round"></path><path d="M 258.400,205.600 C 260.208,203.679 260.681,204.650 262.400,202.400" stroke-width="4.791" stroke="black" fill="none" stroke-linecap="round"></path><path d="M 262.400,202.400 C 265.128,201.005 265.008,200.879 268.000,200.000" stroke-width="4.317" stroke="black" fill="none" stroke-linecap="round"></path><path d="M 268.000,200.000 C 273.332,198.731 273.128,198.205 278.400,196.800" stroke-width="3.655" stroke="black" fill="none" stroke-linecap="round"></path><path d="M 278.400,196.800 C 281.755,195.461 281.732,195.530 284.800,193.600" stroke-width="3.814" stroke="black" fill="none" stroke-linecap="round"></path><path d="M 284.800,193.600 C 288.670,190.581 288.955,191.061 292.800,188.000" stroke-width="3.642" stroke="black" fill="none" stroke-linecap="round"></path><path d="M 292.800,188.000 C 296.252,187.622 295.070,186.581 297.600,185.600" stroke-width="4.063" stroke="black" fill="none" stroke-linecap="round"></path><path d="M 297.600,185.600 C 298.251,181.959 299.452,182.822 299.200,178.400" stroke-width="4.718" stroke="black" fill="none" stroke-linecap="round"></path><path d="M 299.200,178.400 C 300.149,176.041 299.851,175.959 300.800,173.600" stroke-width="4.443" stroke="black" fill="none" stroke-linecap="round"></path><path d="M 300.800,173.600 C 301.546,169.987 301.749,170.041 302.400,166.400" stroke-width="4.066" stroke="black" fill="none" stroke-linecap="round"></path><path d="M 302.400,166.400 C 303.541,161.584 303.546,161.587 304.800,156.800" stroke-width="4.245" stroke="black" fill="none" stroke-linecap="round"></path><path d="M 304.800,156.800 C 305.791,154.041 305.541,153.984 306.400,151.200" stroke-width="4.206" stroke="black" fill="none" stroke-linecap="round"></path><path d="M 306.400,151.200 C 308.256,147.500 306.991,148.441 307.200,145.600" stroke-width="4.759" stroke="black" fill="none" stroke-linecap="round"></path><path d="M 307.200,145.600 C 304.872,144.353 306.256,143.900 302.400,144.000" stroke-width="5.155" stroke="black" fill="none" stroke-linecap="round"></path><path d="M 302.400,144.000 C 298.888,143.111 299.273,143.553 296.000,144.000" stroke-width="4.819" stroke="black" fill="none" stroke-linecap="round"></path><path d="M 296.000,144.000 C 293.409,145.188 293.688,144.711 292.000,147.200" stroke-width="5.131" stroke="black" fill="none" stroke-linecap="round"></path><path d="M 292.000,147.200 C 290.967,149.545 290.609,149.188 290.400,152.000" stroke-width="4.965" stroke="black" fill="none" stroke-linecap="round"></path><path d="M 290.400,152.000 C 289.741,154.782 289.767,154.745 289.600,157.600" stroke-width="4.850" stroke="black" fill="none" stroke-linecap="round"></path><path d="M 289.600,157.600 C 289.341,162.818 289.341,162.782 289.600,168.000" stroke-width="4.434" stroke="black" fill="none" stroke-linecap="round"></path><path d="M 289.600,168.000 C 289.579,170.932 289.741,170.818 290.400,173.600" stroke-width="4.282" stroke="black" fill="none" stroke-linecap="round"></path><path d="M 290.400,173.600 C 290.843,177.226 291.179,176.132 292.800,178.400" stroke-width="4.811" stroke="black" fill="none" stroke-linecap="round"></path><path d="M 292.800,178.400 C 295.893,179.236 294.843,179.626 298.400,178.400" stroke-width="5.120" stroke="black" fill="none" stroke-linecap="round"></path><path d="M 298.400,178.400 C 301.252,177.331 300.693,177.636 302.400,175.200" stroke-width="5.094" stroke="black" fill="none" stroke-linecap="round"></path><path d="M 302.400,175.200 C 303.572,171.641 304.052,172.131 304.000,168.000" stroke-width="4.975" stroke="black" fill="none" stroke-linecap="round"></path><path d="M 304.000,168.000 C 303.628,164.759 304.372,164.841 304.000,161.600" stroke-width="4.770" stroke="black" fill="none" stroke-linecap="round"></path><path d="M 304.000,161.600 C 304.995,158.032 304.428,157.959 305.600,154.400" stroke-width="4.629" stroke="black" fill="none" stroke-linecap="round"></path><path d="M 305.600,154.400 C 309.298,148.119 306.195,150.832 306.400,147.200" stroke-width="4.833" stroke="black" fill="none" stroke-linecap="round"></path><path d="M 180.800,147.200 C 184.000,147.200 184.000,147.200 187.200,147.200" stroke-width="5.485" stroke="black" fill="none" stroke-linecap="round"></path><path d="M 187.200,147.200 C 190.400,147.200 190.400,147.200 193.600,147.200" stroke-width="4.937" stroke="black" fill="none" stroke-linecap="round"></path><path d="M 193.600,147.200 C 197.200,147.200 197.200,147.200 200.800,147.200" stroke-width="5.159" stroke="black" fill="none" stroke-linecap="round"></path></svg>